# xmcd
#
# Track frame offsets:
#	150
#	30315
#	37467
#	59795
#	76100
#	89587
#	96640
#	102887
#	117220
#	160902
#	221825
#	232387
#	240402
#
# Disc length: 3731 seconds
#
# Revision: 1
# Processed by: cddbd v1.5PL3 Copyright (c) Steve Scherf et al.
# Submitted via: CDex 1.50Beta5
#
DISCID=ba0e910d
DTITLE=宮川彬良 - 身毒丸 Music File
DYEAR=1900
DGENRE=
TTITLE0=プロローグ 身毒丸のテーマ
TTITLE1=身毒丸と撫子の出会い
TTITLE2=家族の形成
TTITLE3=継子と継母
TTITLE4=鬼子母変
TTITLE5=髪切虫
TTITLE6=学校唱歌
TTITLE7=穴
TTITLE8=地獄のオシラガミ
TTITLE9=藁人形
TTITLE10=芝居小屋
TTITLE11=あおい輪廻
TTITLE12=エピローグ
EXTD=
EXTT0=
EXTT1=
EXTT2=
EXTT3=
EXTT4=
EXTT5=
EXTT6=
EXTT7=
EXTT8=
EXTT9=
EXTT10=
EXTT11=
EXTT12=
PLAYORDER=
